# xmcd CD database file
#
# Track frame offsets:
#	150
#	18677
#	37200
#	62260
#	80570
#	103720
#	117197
#	153270
#	175447
#	189187
#	203540
#	230595
#	255027
#
# Disc length: 3659 seconds
#
# Revision: 6
# Processed by: cddbd v1.5.2PL0 Copyright (c) Steve Scherf et al.
# Submitted via: CDex 1.51
#
DISCID=9e0e490d
DTITLE=Albert Collins - Deluxe Edition
DYEAR=1997
DGENRE=Blues
TTITLE0=I Ain't Drunk
TTITLE1=If You Love Me Like You Say
TTITLE2=Blue Monday Hangover
TTITLE3=Melt Down
TTITLE4=Master Charge
TTITLE5=Too Tired
TTITLE6=If Trouble Was Money
TTITLE7=T-Bone Shuffle
TTITLE8=Get To Gettin'
TTITLE9=But I Was Cool!
TTITLE10=Cold Cuts
TTITLE11=When The Welfare Turns Its Back On You
TTITLE12=A Good Fool Is Hard To Find
EXTD=YEAR: 1997
EXTT0=
EXTT1=
EXTT2=
EXTT3=
EXTT4=
EXTT5=
EXTT6=
EXTT7=
EXTT8=
EXTT9=
EXTT10=
EXTT11=
EXTT12=
PLAYORDER=
